<?xml version="1.0" encoding="UTF-8"?>
<svg width="572px" height="539px" viewBox="0 0 572 539" version="1.1" xmlns="http://www.w3.org/2000/svg" xmlns:xlink="http://www.w3.org/1999/xlink">
    <title>Slice</title>
    <g id="Page-1" stroke="none" stroke-width="1" fill="none" fill-rule="evenodd">
        <g id="noun-fried-egg-1862041" transform="translate(48.607573, 0.201294)">
            <path d="M67.5802302,31.90814 C51.3864241,43.5833709 36.5371321,57.8717111 23.0323544,74.7731607 L11.0147816,123.750296 C3.00306632,142.079853 3.00306632,153.468588 11.0147816,157.916502 C19.0264968,162.364417 23.0323544,189.991818 23.0323544,240.798706 L11.0147816,339.588575 L23.0323544,410.04907 L67.5802302,469.93827 L141.392427,512.366606 L212.477927,526.069721 L282.296954,512.366606 L341.324554,482.766656 L435.01157,410.04907 L460.304034,339.588575 L460.304034,274.596785 L449.861896,234.545723 L404.596321,203.23513 L345.823427,172.429416 L302.046545,138.160536 L273.368443,65.9750145 L219.14065,22.9662831 L184.476355,14.1603838 L144.457427,14.1603838 L100.967568,18.5842944 C94.9031488,15.7916272 83.7740364,20.2329091 67.5802302,31.90814 Z" id="Path-2" fill="#FFFFFF"></path>
            <path d="M201.392427,534.968706 C154.158427,534.937456 108.544427,517.730706 73.0624273,486.550706 C-14.5545727,412.698706 -2.65257269,350.870706 7.73042731,296.380706 L7.72652031,296.380706 C12.5585203,275.974706 14.8320203,255.048706 14.4960203,234.083706 C13.4335203,224.509506 11.8398203,215.005706 9.71082031,205.614706 C0.0272203066,160.813706 -15.0231797,85.794706 37.2458203,40.294706 C56.9178203,24.724706 79.5268203,13.282706 103.71882,6.64670595 C127.91382,0.010005954 153.19882,-1.67749405 178.06282,1.67790595 C216.43782,4.54510595 251.91082,23.169906 276.06282,53.126906 C285.17222,66.634906 292.32082,81.364906 297.29282,96.876906 C309.65982,130.591906 320.62482,159.759906 410.46282,192.075906 C441.84582,203.743906 462.49782,229.407906 469.96282,267.442906 C481.63082,324.727906 459.81482,401.492906 423.29482,434.982906 C399.72882,456.334906 305.34482,534.968706 201.39482,534.968706 L201.392427,534.968706 Z M52.5224273,57.798706 C10.5224273,94.314706 23.3544273,158.478706 31.8744273,200.838706 C34.3002273,211.365706 36.0150273,222.045706 37.0072273,232.803706 C37.5072273,255.717706 35.1556273,278.604706 30.0072273,300.936706 C19.3902273,356.120706 10.2922273,403.726706 87.4052273,468.816706 C213.985227,575.686706 364.255227,457.148706 407.195227,417.714706 C434.726227,392.749706 458.062227,325.085706 447.093227,272.004706 C445.511227,259.199706 440.550227,247.051706 432.714227,236.797706 C424.882227,226.547706 414.464227,218.567706 402.526227,213.672706 C302.196227,177.738706 288.546227,140.524706 275.356227,104.592706 C271.106227,91.065706 264.938227,78.217706 257.040227,66.440706 C236.755227,41.819706 207.208227,26.667706 175.376227,24.557706 C131.603227,18.370206 87.2002273,30.385806 52.5262273,57.807706 L52.5224273,57.798706 Z" id="Shape" fill="#000000" fill-rule="nonzero"></path>
            <circle id="Oval" fill="#FDE047" cx="234.892427" cy="334.298706" r="93.5"></circle>
            <path d="M233.472427,445.718706 C203.675427,445.718706 175.101427,433.878706 154.031427,412.812706 C132.961427,391.742706 121.125427,363.164706 121.125427,333.367706 C121.125427,303.570706 132.961427,274.992706 154.031427,253.926706 C175.101427,232.856706 203.676427,221.016706 233.472427,221.016706 C263.268427,221.016706 291.847427,232.856706 312.917427,253.926706 C333.987427,274.992706 345.823427,303.571706 345.823427,333.367706 C345.792177,363.156706 333.944427,391.715706 312.882427,412.777706 C291.820427,433.839706 263.261427,445.687706 233.472427,445.718706 L233.472427,445.718706 Z M233.472427,244.348706 C209.867427,244.348706 187.222427,253.727606 170.531427,270.418706 C153.836427,287.113706 144.457427,309.754706 144.457427,333.363706 C144.457427,356.972706 153.836327,379.613706 170.531427,396.308706 C187.222427,412.999706 209.867427,422.378706 233.472427,422.378706 C257.081427,422.378706 279.722427,412.999806 296.417427,396.308706 C313.112427,379.613706 322.491427,356.972706 322.491427,333.363706 C322.428927,309.785706 313.026627,287.191706 296.343427,270.527706 C279.659427,253.867706 257.054427,244.496706 233.472427,244.465706 L233.472427,244.348706 Z" id="Shape" fill="#000000" fill-rule="nonzero"></path>
            <path d="M179.462427,357.868706 C173.021027,357.868706 167.794427,352.646006 167.794427,346.200706 C167.794427,325.583706 175.978027,305.809706 190.548427,291.220706 C205.114427,276.630706 224.876427,268.415706 245.497427,268.384706 C251.938827,268.384706 257.161427,273.611306 257.161427,280.052706 C257.161427,286.494106 251.938727,291.720706 245.497427,291.720706 C231.067427,291.751956 217.239427,297.505906 207.044427,307.716706 C196.853427,317.931706 191.130427,331.771706 191.130427,346.200706 C191.130427,349.298406 189.899927,352.263206 187.712427,354.450706 C185.524927,356.638206 182.556227,357.868706 179.462427,357.868706 L179.462427,357.868706 Z" id="Path" fill="#000000" fill-rule="nonzero"></path>
        </g>
    </g>
</svg>